<svg xmlns="http://www.w3.org/2000/svg" width="155" height="49" viewBox="0 0 155 49" fill="none">
  <g filter="url(#filter0_d_165_40)">
    <path d="M5 1H23.8989V3.12265V5.63124L23.5712 9.58709L23.1342 18.4636L31.2181 8.23631H44.7642L52.9573 18.8496L52.3019 1H71.0915L66.5034 13.8324L68.4697 11.8062L71.8562 9.29764L75.7889 7.85038L79.5032 7.36796H83.9821L88.1333 8.23631L91.4106 9.58709L93.8139 11.4203L95.3433 13.35L96.7634 15.3761L98.0743 18.0777L98.4021 20.8757L87.3644 20.6551V19.7192L86.8964 18.7832L86.4284 17.8473L85.5115 16.4433L84.0885 15.5074L82.6846 15.0394H81.2807H79.8767L78.52 15.3761L77.5368 15.9753L76.6009 16.9113L75.7889 18.0777L75.0821 19.2512V20.8757L75.352 26.2789V27.7261L77.0998 29.6558L79.5032 31.296L82.125 31.5855H85.1838L88.1333 30.4277L90.7551 28.498L92.7215 29.6558L95.3433 31.8749L93.3769 36.5062L91.4106 38.0499L88.6795 39.1112L85.5115 39.4972H82.9989H78.52L74.6965 38.5323L71.8562 37.3745L69.2344 35.5413L66.9403 33.2257L65.3017 30.9101L64.2093 28.498L63.6631 26.2789L63.3353 23.6738V22.0335L56.89 39.1112H48.2599L43.344 32.2609H46.4028L40.8314 25.121H43.344L37.9911 18.8496L32.8568 25.4105H35.3693L29.9072 32.2609H32.8568L28.0501 39.1112H19.2015L8.05878 9.58709L5 1Z" fill="#484848"/>
    <path d="M5 1H23.8989V3.12265V5.63124L23.5712 9.58709L23.1342 18.4636L31.2181 8.23631H44.7642L52.9573 18.8496L52.3019 1H71.0915L66.5034 13.8324L68.4697 11.8062L71.8562 9.29764L75.7889 7.85038L79.5032 7.36796H83.9821L88.1333 8.23631L91.4106 9.58709L93.8139 11.4203L95.3433 13.35L96.7634 15.3761L98.0743 18.0777L98.4021 20.8757L87.3644 20.6551V19.7192L86.8964 18.7832L86.4284 17.8473L85.5115 16.4433L84.0885 15.5074L82.6846 15.0394H81.2807H79.8767L78.52 15.3761L77.5368 15.9753L76.6009 16.9113L75.7889 18.0777L75.0821 19.2512V20.8757L75.352 26.2789V27.7261L77.0998 29.6558L79.5032 31.296L82.125 31.5855H85.1838L88.1333 30.4277L90.7551 28.498L92.7215 29.6558L95.3433 31.8749L93.3769 36.5062L91.4106 38.0499L88.6795 39.1112L85.5115 39.4972H82.9989H78.52L74.6965 38.5323L71.8562 37.3745L69.2344 35.5413L66.9403 33.2257L65.3017 30.9101L64.2093 28.498L63.6631 26.2789L63.3353 23.6738V22.0335L56.89 39.1112H48.2599L43.344 32.2609H46.4028L40.8314 25.121H43.344L37.9911 18.8496L32.8568 25.4105H35.3693L29.9072 32.2609H32.8568L28.0501 39.1112H19.2015L8.05878 9.58709L5 1Z" fill="black" fill-opacity="0.2"/>
    <path d="M5 1H23.8989V3.12265V5.63124L23.5712 9.58709L23.1342 18.4636L31.2181 8.23631H44.7642L52.9573 18.8496L52.3019 1H71.0915L66.5034 13.8324L68.4697 11.8062L71.8562 9.29764L75.7889 7.85038L79.5032 7.36796H83.9821L88.1333 8.23631L91.4106 9.58709L93.8139 11.4203L95.3433 13.35L96.7634 15.3761L98.0743 18.0777L98.4021 20.8757L87.3644 20.6551V19.7192L86.8964 18.7832L86.4284 17.8473L85.5115 16.4433L84.0885 15.5074L82.6846 15.0394H81.2807H79.8767L78.52 15.3761L77.5368 15.9753L76.6009 16.9113L75.7889 18.0777L75.0821 19.2512V20.8757L75.352 26.2789V27.7261L77.0998 29.6558L79.5032 31.296L82.125 31.5855H85.1838L88.1333 30.4277L90.7551 28.498L92.7215 29.6558L95.3433 31.8749L93.3769 36.5062L91.4106 38.0499L88.6795 39.1112L85.5115 39.4972H82.9989H78.52L74.6965 38.5323L71.8562 37.3745L69.2344 35.5413L66.9403 33.2257L65.3017 30.9101L64.2093 28.498L63.6631 26.2789L63.3353 23.6738V22.0335L56.89 39.1112H48.2599L43.344 32.2609H46.4028L40.8314 25.121H43.344L37.9911 18.8496L32.8568 25.4105H35.3693L29.9072 32.2609H32.8568L28.0501 39.1112H19.2015L8.05878 9.58709L5 1Z" fill="black" fill-opacity="0.2"/>
    <path d="M139.914 1.00024H125.713L110.2 39.015H125.166L139.914 1.00024Z" fill="#484848"/>
    <path d="M139.914 1.00024H125.713L110.2 39.015H125.166L139.914 1.00024Z" fill="black" fill-opacity="0.2"/>
    <path d="M139.914 1.00024H125.713L110.2 39.015H125.166L139.914 1.00024Z" fill="black" fill-opacity="0.2"/>
    <path d="M94.3602 34.0944H94.4695L93.4863 36.5065H93.2678L94.3602 34.0944Z" fill="#484848"/>
    <path d="M94.3602 34.0944H94.4695L93.4863 36.5065H93.2678L94.3602 34.0944Z" fill="black" fill-opacity="0.2"/>
    <path d="M94.3602 34.0944H94.4695L93.4863 36.5065H93.2678L94.3602 34.0944Z" fill="black" fill-opacity="0.2"/>
    <path d="M98.7297 22.8057L98.9482 22.9986L97.6373 26.2791H97.4188L98.7297 22.8057Z" fill="#C12222"/>
    <path d="M122.108 1.00024H107.906L92.3939 39.015H107.36L122.108 1.00024Z" fill="#484848"/>
    <path d="M122.108 1.00024H107.906L92.3939 39.015H107.36L122.108 1.00024Z" fill="black" fill-opacity="0.2"/>
    <path d="M122.108 1.00024H107.906L92.3939 39.015H107.36L122.108 1.00024Z" fill="black" fill-opacity="0.2"/>
    <path d="M74.729 20.6553H87.3644H98.3641L98.596 21.5912L99.0639 22.5272L99.5319 21.5912V22.5272L99.0639 22.9952L98.596 23.9311L98.128 25.3351L97.66 26.271H74.729V20.6553Z" fill="#484848"/>
    <path d="M74.729 20.6553H87.3644H98.3641L98.596 21.5912L99.0639 22.5272L99.5319 21.5912V22.5272L99.0639 22.9952L98.596 23.9311L98.128 25.3351L97.66 26.271H74.729V20.6553Z" fill="black" fill-opacity="0.2"/>
    <path d="M74.729 20.6553H87.3644H98.3641L98.596 21.5912L99.0639 22.5272L99.5319 21.5912V22.5272L99.0639 22.9952L98.596 23.9311L98.128 25.3351L97.66 26.271H74.729V20.6553Z" fill="black" fill-opacity="0.2"/>
    <path d="M143.27 5.03819H143.488V5.05263V5.52061H143.816V5.81006H144.144V6.09951H144.362V6.38897H144.69V6.58194H144.908V6.87139H145.376H147.67H148.138V6.58194H148.326H148.794V6.38897H149.012V6.09951H149.34V5.81006H149.558V5.34208V5.32764H149.886V4.85966V3.12295V2.65497H149.558V2.54404V2.07606H149.34V1.88309H149.012V1.59364H148.794V1.30419H148.326H148.052L147.943 1.11122H147.92V0.918251H147.452H145.704H145.236V1.11122H145.158H144.69V1.40067H144.362V1.59364H144.034V1.78661H143.816V2.07606H143.488V2.54404V2.83349V2.84793H143.27V3.31591V4.57021V5.03819Z" stroke="#484848" stroke-width="0.935959"/>
    <path d="M143.27 5.03819H143.488V5.05263V5.52061H143.816V5.81006H144.144V6.09951H144.362V6.38897H144.69V6.58194H144.908V6.87139H145.376H147.67H148.138V6.58194H148.326H148.794V6.38897H149.012V6.09951H149.34V5.81006H149.558V5.34208V5.32764H149.886V4.85966V3.12295V2.65497H149.558V2.54404V2.07606H149.34V1.88309H149.012V1.59364H148.794V1.30419H148.326H148.052L147.943 1.11122H147.92V0.918251H147.452H145.704H145.236V1.11122H145.158H144.69V1.40067H144.362V1.59364H144.034V1.78661H143.816V2.07606H143.488V2.54404V2.83349V2.84793H143.27V3.31591V4.57021V5.03819Z" stroke="black" stroke-opacity="0.2" stroke-width="0.935959"/>
    <path d="M143.27 5.03819H143.488V5.05263V5.52061H143.816V5.81006H144.144V6.09951H144.362V6.38897H144.69V6.58194H144.908V6.87139H145.376H147.67H148.138V6.58194H148.326H148.794V6.38897H149.012V6.09951H149.34V5.81006H149.558V5.34208V5.32764H149.886V4.85966V3.12295V2.65497H149.558V2.54404V2.07606H149.34V1.88309H149.012V1.59364H148.794V1.30419H148.326H148.052L147.943 1.11122H147.92V0.918251H147.452H145.704H145.236V1.11122H145.158H144.69V1.40067H144.362V1.59364H144.034V1.78661H143.816V2.07606H143.488V2.54404V2.83349V2.84793H143.27V3.31591V4.57021V5.03819Z" stroke="black" stroke-opacity="0.2" stroke-width="0.935959"/>
    <path d="M146.032 5.34207H145.376V5.24559V4.18426V3.41239V2.44755V2.35106V2.25458H147.67V2.35106V2.54403H147.78H147.998V2.83348C147.998 2.91067 148.016 2.86564 148.053 2.83348V3.60536H147.998V3.79832H147.452V4.08778H147.711C147.711 4.1521 147.624 4.34137 147.711 4.34137H147.998V5.34207H147.452V4.37723H147.124V4.08778H146.032V5.34207Z" fill="#484848"/>
    <path d="M146.032 5.34207H145.376V5.24559V4.18426V3.41239V2.44755V2.35106V2.25458H147.67V2.35106V2.54403H147.78H147.998V2.83348C147.998 2.91067 148.016 2.86564 148.053 2.83348V3.60536H147.998V3.79832H147.452V4.08778H147.711C147.711 4.1521 147.624 4.34137 147.711 4.34137H147.998V5.34207H147.452V4.37723H147.124V4.08778H146.032V5.34207Z" fill="black" fill-opacity="0.2"/>
    <path d="M146.032 5.34207H145.376V5.24559V4.18426V3.41239V2.44755V2.35106V2.25458H147.67V2.35106V2.54403H147.78H147.998V2.83348C147.998 2.91067 148.016 2.86564 148.053 2.83348V3.60536H147.998V3.79832H147.452V4.08778H147.711C147.711 4.1521 147.624 4.34137 147.711 4.34137H147.998V5.34207H147.452V4.37723H147.124V4.08778H146.032V5.34207Z" fill="black" fill-opacity="0.2"/>
    <path d="M145.923 3.79842V2.54413H147.124V2.83358H147.452V3.60545H147.124V3.79842H145.923Z" fill="#EEEEEE"/>
  </g>
  <defs>
    <!-- <filter id="filter0_d_165_40" x="0.97415" y="0.450256" width="153.406" height="48.1051" filterUnits="userSpaceOnUse" color-interpolation-filters="sRGB">
      <feFlood flood-opacity="0" result="BackgroundImageFix"/>
      <feColorMatrix in="SourceAlpha" type="matrix" values="0 0 0 0 0 0 0 0 0 0 0 0 0 0 0 0 0 0 127 0" result="hardAlpha"/>
      <feOffset dy="5.03231"/>
      <feGaussianBlur stdDeviation="2.01292"/>
      <feComposite in2="hardAlpha" operator="out"/>
      <feColorMatrix type="matrix" values="0 0 0 0 0 0 0 0 0 0 0 0 0 0 0 0 0 0 0.25 0"/>
      <feBlend mode="normal" in2="BackgroundImageFix" result="effect1_dropShadow_165_40"/>
      <feBlend mode="normal" in="SourceGraphic" in2="effect1_dropShadow_165_40" result="shape"/>
    </filter> -->
  </defs>
</svg>