<svg width="40" height="40" viewBox="0 0 40 40" fill="none" xmlns="http://www.w3.org/2000/svg">
<g clip-path="url(#clip0_86_26)">
<path d="M16.8 28.8001C23.8693 28.8001 29.6 23.0693 29.6 16.0001C29.6 8.93083 23.8693 3.20007 16.8 3.20007C9.73077 3.20007 4.00002 8.93083 4.00002 16.0001C4.00002 23.0693 9.73077 28.8001 16.8 28.8001Z" stroke="#484848" stroke-width="1.95" stroke-miterlimit="10" stroke-linecap="round"/>
<path d="M16.8 28.8001C23.8693 28.8001 29.6 23.0693 29.6 16.0001C29.6 8.93083 23.8693 3.20007 16.8 3.20007C9.73077 3.20007 4.00002 8.93083 4.00002 16.0001C4.00002 23.0693 9.73077 28.8001 16.8 28.8001Z" stroke="black" stroke-opacity="0.2" stroke-width="1.95" stroke-miterlimit="10" stroke-linecap="round"/>
<path d="M16.8 28.8001C23.8693 28.8001 29.6 23.0693 29.6 16.0001C29.6 8.93083 23.8693 3.20007 16.8 3.20007C9.73077 3.20007 4.00002 8.93083 4.00002 16.0001C4.00002 23.0693 9.73077 28.8001 16.8 28.8001Z" stroke="black" stroke-opacity="0.2" stroke-width="1.95" stroke-miterlimit="10" stroke-linecap="round"/>
<path d="M25.7832 25.7832L36.4 36.4" stroke="#484848" stroke-width="3.9" stroke-miterlimit="10"/>
<path d="M25.7832 25.7832L36.4 36.4" stroke="black" stroke-opacity="0.2" stroke-width="3.9" stroke-miterlimit="10"/>
<path d="M25.7832 25.7832L36.4 36.4" stroke="black" stroke-opacity="0.2" stroke-width="3.9" stroke-miterlimit="10"/>
</g>
<defs>
<clipPath id="clip0_86_26">
<rect width="40" height="40" fill="white"/>
</clipPath>
</defs>
</svg>
