<svg xmlns="http://www.w3.org/2000/svg" width="40" height="40" viewBox="0 0 40 40" fill="none">
  <g clip-path="url(#clip0_86_20)">
    <path d="M28.75 28.75H10.9063L6.54688 4.78125C6.49587 4.49421 6.34614 4.23403 6.12358 4.04571C5.90103 3.85739 5.61965 3.75279 5.32812 3.75H2.5" stroke="#484848" stroke-width="1.95" stroke-linecap="round" stroke-linejoin="round"/>
    <path d="M28.75 28.75H10.9063L6.54688 4.78125C6.49587 4.49421 6.34614 4.23403 6.12358 4.04571C5.90103 3.85739 5.61965 3.75279 5.32812 3.75H2.5" stroke="black" stroke-opacity="0.2" stroke-width="1.95" stroke-linecap="round" stroke-linejoin="round"/>
    <path d="M28.75 28.75H10.9063L6.54688 4.78125C6.49587 4.49421 6.34614 4.23403 6.12358 4.04571C5.90103 3.85739 5.61965 3.75279 5.32812 3.75H2.5" stroke="black" stroke-opacity="0.2" stroke-width="1.95" stroke-linecap="round" stroke-linejoin="round"/>
    <path d="M12.5 35C14.2259 35 15.625 33.6009 15.625 31.875C15.625 30.1491 14.2259 28.75 12.5 28.75C10.7741 28.75 9.375 30.1491 9.375 31.875C9.375 33.6009 10.7741 35 12.5 35Z" stroke="#484848" stroke-width="1.95" stroke-linecap="round" stroke-linejoin="round"/>
    <path d="M12.5 35C14.2259 35 15.625 33.6009 15.625 31.875C15.625 30.1491 14.2259 28.75 12.5 28.75C10.7741 28.75 9.375 30.1491 9.375 31.875C9.375 33.6009 10.7741 35 12.5 35Z" stroke="black" stroke-opacity="0.2" stroke-width="1.95" stroke-linecap="round" stroke-linejoin="round"/>
    <path d="M12.5 35C14.2259 35 15.625 33.6009 15.625 31.875C15.625 30.1491 14.2259 28.75 12.5 28.75C10.7741 28.75 9.375 30.1491 9.375 31.875C9.375 33.6009 10.7741 35 12.5 35Z" stroke="black" stroke-opacity="0.2" stroke-width="1.95" stroke-linecap="round" stroke-linejoin="round"/>
    <path d="M28.75 35C30.4759 35 31.875 33.6009 31.875 31.875C31.875 30.1491 30.4759 28.75 28.75 28.75C27.0241 28.75 25.625 30.1491 25.625 31.875C25.625 33.6009 27.0241 35 28.75 35Z" stroke="#484848" stroke-width="1.95" stroke-linecap="round" stroke-linejoin="round"/>
    <path d="M28.75 35C30.4759 35 31.875 33.6009 31.875 31.875C31.875 30.1491 30.4759 28.75 28.75 28.75C27.0241 28.75 25.625 30.1491 25.625 31.875C25.625 33.6009 27.0241 35 28.75 35Z" stroke="black" stroke-opacity="0.2" stroke-width="1.95" stroke-linecap="round" stroke-linejoin="round"/>
    <path d="M28.75 35C30.4759 35 31.875 33.6009 31.875 31.875C31.875 30.1491 30.4759 28.75 28.75 28.75C27.0241 28.75 25.625 30.1491 25.625 31.875C25.625 33.6009 27.0241 35 28.75 35Z" stroke="black" stroke-opacity="0.2" stroke-width="1.95" stroke-linecap="round" stroke-linejoin="round"/>
    <path d="M9.76562 23.1404H29.3906C29.9749 23.1423 30.5412 22.9263 30.9899 22.5302C31.4385 22.1342 31.7409 21.5836 31.8438 20.9751L33.75 9.9173H7.5" stroke="#484848" stroke-width="1.95" stroke-linecap="round" stroke-linejoin="round"/>
    <path d="M9.76562 23.1404H29.3906C29.9749 23.1423 30.5412 22.9263 30.9899 22.5302C31.4385 22.1342 31.7409 21.5836 31.8438 20.9751L33.75 9.9173H7.5" stroke="black" stroke-opacity="0.2" stroke-width="1.95" stroke-linecap="round" stroke-linejoin="round"/>
    <path d="M9.76562 23.1404H29.3906C29.9749 23.1423 30.5412 22.9263 30.9899 22.5302C31.4385 22.1342 31.7409 21.5836 31.8438 20.9751L33.75 9.9173H7.5" stroke="black" stroke-opacity="0.2" stroke-width="1.95" stroke-linecap="round" stroke-linejoin="round"/>
  </g>
  <defs>
    <clipPath id="clip0_86_20">
      <rect width="40" height="40" fill="white"/>
    </clipPath>
  </defs>
</svg>