<svg xmlns="http://www.w3.org/2000/svg" width="138" height="44" viewBox="0 0 138 44" fill="none">
  <g filter="url(#filter0_d_189_184)">
    <path d="M4 1H20.9352V2.9021V5.15004L20.6416 8.69486L20.25 16.6491L27.494 7.48443H39.6325L46.9744 16.9949L46.387 1H63.2244L59.1129 12.4991L60.875 10.6834L63.9096 8.43548L67.4337 7.1386L70.762 6.7063H74.7756L78.4955 7.48443L81.4322 8.69486L83.5858 10.3376L84.9563 12.0668L86.2289 13.8824L87.4036 16.3033L87.6973 18.8106L77.8064 18.6129V17.7742L77.3871 16.9355L76.9677 16.0968L76.146 14.8387L74.8709 14L73.6129 13.5806H72.3548H71.0967L69.881 13.8824L69 14.4193L68.1613 15.2581L67.4337 16.3033L66.8003 17.3548V18.8106L67.0421 23.6523V24.9492L68.6084 26.6784L70.762 28.1482L73.1114 28.4075H75.8524L78.4955 27.37L80.8448 25.6408L82.6069 26.6784L84.9563 28.6669L83.1942 32.817L81.4322 34.2003L78.9849 35.1514L76.146 35.4972H73.8945H69.881L66.4548 34.6326L63.9096 33.5951L61.5602 31.9524L59.5045 29.8773L58.0361 27.8023L57.0572 25.6408L56.5677 23.6523L56.2741 21.3179V19.8481L50.4985 35.1514H42.765L38.3599 29.0128H41.1009L36.1084 22.6148H38.3599L33.5632 16.9949L28.9623 22.8742H31.2138L26.3193 29.0128H28.9623L24.6551 35.1514H16.7259L6.74096 8.69486L4 1Z" fill="#2E2E2E"/>
    <path d="M124.896 1.00024H112.17L98.2697 35.0651H111.681L124.896 1.00024Z" fill="#2E2E2E"/>
    <path d="M84.0754 30.6558H84.1732L83.2922 32.8172H83.0964L84.0754 30.6558Z" fill="#2E2E2E"/>
    <path d="M87.9909 20.54L88.1866 20.713L87.0119 23.6526H86.8162L87.9909 20.54Z" fill="#C12222"/>
    <path d="M108.94 1.00024H96.214L82.3134 35.0651H95.7245L108.94 1.00024Z" fill="#2E2E2E"/>
    <path d="M66.4839 18.613H77.8065H87.6632L87.871 19.4517L88.2903 20.2905L88.7097 19.4517V20.2905L88.2903 20.7098L87.871 21.5485L87.4516 22.8066L87.0323 23.6453H66.4839V18.613Z" fill="#2E2E2E"/>
    <path d="M128.812 1.95129H128.518V2.12421H128.224V2.21067V2.38359H127.931V2.64297V4.28569H128.126V4.37215V4.54507V4.71799V4.8909H128.42V5.15028H128.714V5.40966H128.812H129.007V5.66904H129.301V5.84195H129.497V6.01487H129.693V6.10133H131.944V6.01487H132.434V5.84195H132.629V5.58258H132.923V5.40966H133.119V5.15028H133.413V4.97736H133.706V4.8909V4.54507H134V4.45861V2.81589H133.706V2.38359H133.51V2.21067L133.413 2.12421H133.315H133.119V1.86484H132.923V1.69192H132.825V1.519H132.629V1.25962H132.14V1.00024H129.595V1.25962H129.497H129.301V1.519H129.007V1.69192H128.812V1.95129Z" fill="#C12222"/>
    <path d="M127.903 4.6187H128.099V4.63164V5.05099H128.392V5.31037H128.686V5.56975H128.882V5.82913H129.176V6.00204H129.371V6.26142H129.791H131.846H132.266V6.00204H132.434H132.853V5.82913H133.049V5.56975H133.343V5.31037H133.538V4.89102V4.87807H133.832V4.45872V2.90246V2.4831H133.538V2.3837V1.96435H133.343V1.79143H133.049V1.53205H132.853V1.27267H132.434H132.189L132.091 1.09976H132.07V0.926837H131.651H130.084H129.665V1.09976H129.595H129.176V1.35913H128.882V1.53205H128.588V1.70497H128.392V1.96435H128.099V2.3837V2.64308V2.65602H127.903V3.07537V4.19934V4.6187Z" stroke="#2E2E2E" stroke-width="0.838709"/>
    <path d="M130.378 4.89096H129.791V4.8045V3.85345V3.16178V2.29719V2.21073V2.12427H131.846V2.21073V2.38364H131.944H132.14V2.64302C132.14 2.71219 132.156 2.67184 132.189 2.64302V3.3347H132.14V3.50761H131.651V3.76699H131.883C131.883 3.82463 131.804 3.99424 131.883 3.99424H132.14V4.89096H131.651V4.02637H131.357V3.76699H130.378V4.89096Z" fill="#2E2E2E"/>
    <path d="M130.28 3.50751V2.38354H131.357V2.64292H131.651V3.3346H131.357V3.50751H130.28Z" fill="#C12222"/>
  </g>
  <defs>
    <filter id="filter0_d_189_184" x="0.392451" y="0.507568" width="137.466" height="43.1065" filterUnits="userSpaceOnUse" color-interpolation-filters="sRGB">
      <feFlood flood-opacity="0" result="BackgroundImageFix"/>
      <feColorMatrix in="SourceAlpha" type="matrix" values="0 0 0 0 0 0 0 0 0 0 0 0 0 0 0 0 0 0 127 0" result="hardAlpha"/>
      <feOffset dy="4.50944"/>
      <feGaussianBlur stdDeviation="1.80377"/>
      <feComposite in2="hardAlpha" operator="out"/>
      <feColorMatrix type="matrix" values="0 0 0 0 0 0 0 0 0 0 0 0 0 0 0 0 0 0 0.25 0"/>
      <feBlend mode="normal" in2="BackgroundImageFix" result="effect1_dropShadow_189_184"/>
      <feBlend mode="normal" in="SourceGraphic" in2="effect1_dropShadow_189_184" result="shape"/>
    </filter>
  </defs>
</svg>